<?xml version="1.0" standalone="no"?>
<!DOCTYPE svg PUBLIC "-//W3C//DTD SVG 20010904//EN"
 "http://www.w3.org/TR/2001/REC-SVG-20010904/DTD/svg10.dtd">
<svg version="1.0" xmlns="http://www.w3.org/2000/svg"
 width="700.000000pt" height="700.000000pt" viewBox="0 0 700.000000 700.000000"
 preserveAspectRatio="xMidYMid meet">
<metadata>
Created by potrace 1.14, written by Peter Selinger 2001-2017
</metadata>
<g transform="translate(0.000000,700.000000) scale(0.100000,-0.100000)"
fill="#000000" stroke="none">
<path d="M3855 6989 c-706 -69 -1369 -407 -1823 -929 -32 -36 -63 -71 -70 -79
-39 -41 -212 -282 -212 -295 0 -3 -13 -24 -29 -48 -26 -39 -91 -163 -135 -259
-9 -20 -29 -42 -44 -50 -15 -8 -38 -21 -52 -30 -14 -9 -56 -36 -95 -60 -89
-55 -277 -195 -346 -257 -489 -439 -796 -985 -909 -1615 -31 -172 -35 -227
-35 -477 0 -242 9 -353 39 -506 2 -12 7 -39 10 -59 18 -109 109 -405 162 -522
48 -108 88 -188 129 -264 l42 -77 -237 -713 c-131 -393 -241 -722 -245 -731
-5 -13 -2 -15 17 -11 23 6 667 174 833 218 50 13 153 40 230 60 157 41 392
104 415 110 78 22 90 23 126 3 80 -42 267 -119 395 -161 205 -68 447 -116 664
-132 76 -6 349 -6 395 -1 19 3 67 7 105 11 91 8 92 8 315 51 167 32 452 135
645 232 153 76 404 241 517 340 164 142 283 261 378 381 19 24 40 48 45 55 81
88 304 458 337 558 3 9 114 -16 253 -56 6 -2 24 -6 40 -11 17 -4 182 -47 367
-96 186 -49 355 -93 375 -98 21 -5 65 -17 98 -26 62 -17 359 -94 385 -101 8
-2 25 -6 37 -10 23 -6 23 -6 9 37 -37 115 -118 356 -125 374 -5 11 -23 65 -41
120 -17 55 -35 109 -40 120 -4 11 -66 196 -138 412 l-130 392 24 43 c63 112
156 315 197 429 43 118 101 323 113 398 3 18 8 43 10 55 2 11 7 37 10 56 3 19
7 42 9 50 2 8 7 49 10 90 4 41 8 93 10 115 5 52 5 326 0 385 -9 108 -20 203
-29 248 -3 15 -8 47 -12 72 -3 24 -8 48 -10 52 -2 3 -9 30 -14 60 -16 82 -90
324 -125 403 -56 128 -76 171 -116 250 -94 185 -257 422 -396 574 -71 80 -222
226 -283 276 -25 20 -54 44 -65 53 -11 10 -36 28 -55 42 -19 13 -37 27 -40 31
-9 12 -202 134 -285 180 -295 164 -678 290 -980 324 -33 4 -73 9 -90 12 -55 8
-459 10 -540 2z"/>
</g>
</svg>
